<?xml version="1.0" encoding="UTF-8"?>
<!DOCTYPE svg PUBLIC "-//W3C//DTD SVG 1.1//EN" "http://www.w3.org/Graphics/SVG/1.1/DTD/svg11.dtd">
<!-- Creator: CorelDRAW X7 -->
<svg xmlns="http://www.w3.org/2000/svg" xml:space="preserve" width="256px" height="256px" version="1.1" style="shape-rendering:geometricPrecision; text-rendering:geometricPrecision; image-rendering:optimizeQuality; fill-rule:evenodd; clip-rule:evenodd"
viewBox="0 0 256 256"
 xmlns:xlink="http://www.w3.org/1999/xlink">
 <defs>
  <style type="text/css">
   <![CDATA[
    .str0 {stroke:black;stroke-width:2.36219}
    .fil2 {fill:black}
    .fil0 {fill:#FFDD1F}
    .fil1 {fill:white}
   ]]>
  </style>
 </defs>
 <g id="Camada_x0020_1">
  <metadata id="CorelCorpID_0Corel-Layer"/>
  <rect class="fil0" width="256" height="256"/>
  <g id="_1610571527664">
   <polygon class="fil1 str0" points="119,241 87,223 89,175 69,135 72,70 78,38 137,39 181,41 191,90 206,98 212,117 201,134 191,143 169,171 167,190 169,209 154,237 "/>
   <g>
    <path class="fil2" d="M122 219c0,6 -2,9 -6,11 -5,-1 -7,-7 -12,-15 -14,-20 -12,-13 -8,-29 3,-14 -2,0 38,0 12,0 20,-5 26,-6 0,0 4,16 4,16 0,4 -12,20 -16,27 -3,4 -3,6 -10,6 -5,-23 14,-26 7,-33 -6,-3 -7,0 -14,0 -7,0 -22,-5 -19,5 1,4 10,11 10,18zm-78 -67c0,-14 0,-7 3,-17l16 5c5,3 1,2 8,14 6,9 15,17 15,31 0,5 1,1 -1,4l-5 0c-2,-19 -36,-19 -36,-37zm108 -43c6,0 12,0 18,0 6,0 13,-3 13,2 0,8 -13,6 -22,6 -8,0 -7,-4 -9,-8zm-55 8c-12,0 -14,1 -22,-3l0 -7c9,2 21,2 32,2 -1,5 -3,8 -10,8zm34 -29l7 0c0,9 3,20 6,28 4,12 17,10 28,10 35,0 11,-33 27,-28 9,4 13,25 -2,32 -6,-4 1,-4 -10,-4 -6,14 -1,18 -20,36 -5,5 -9,8 -16,11 -42,18 -78,-15 -78,-48 14,0 35,8 42,-10l6 -23c1,0 1,-1 1,-1 1,4 5,15 1,23 -4,7 -7,0 -7,7 0,7 10,5 20,5 3,0 5,-2 5,-5 0,-6 -4,-3 -8,-6 0,-11 0,-18 -2,-27zm-6 -37c52,0 56,-21 56,24 0,3 -1,4 -5,4l-94 0c-6,0 -3,-11 -4,-18 -2,-25 23,-10 47,-10zm-65 36c-6,4 -19,8 -19,24 0,12 4,9 -1,18 -9,16 -9,36 10,46 10,4 19,7 21,18 -10,6 -22,9 -32,22 -5,7 -7,8 -10,17 -3,8 -4,15 -4,24l206 0c0,-31 -10,-45 -39,-60 -15,-7 -32,-4 -15,-29 4,-7 9,-10 12,-18 3,-7 1,-6 7,-9 9,-4 20,-5 20,-29 0,-17 -12,-20 -19,-24 0,-12 1,-25 -1,-34 -4,-17 -10,-28 -27,-29 -20,-1 -8,-9 -41,-14 -8,-1 -23,1 -30,4 -31,11 -38,37 -38,73z"/>
    <path class="fil2" d="M118 165c12,0 17,1 27,-1 0,-11 -3,-9 -27,-9 -7,0 -7,10 0,10z"/>
   </g>
  </g>
 </g>
</svg>
